DataType=double
version=3
OpenSimVersion=4.2
endheader
time	ground_force_r_vx	ground_force_r_vy	ground_force_r_vz	ground_force_r_px	ground_force_r_py	ground_force_r_pz	ground_force_l_vx	ground_force_l_vy	ground_force_l_vz	ground_force_l_px	ground_force_l_py	ground_force_l_pz	ground_torque_r_x	ground_torque_r_y	ground_torque_r_z	ground_torque_l_x	ground_torque_l_y	ground_torque_l_z
0.868	0	0	0	0	0	0	0	0	0	0	0	0	0	0	0	0	0	0
0.8704380303733298	0	0	0	0	0	0	0	0	0	0	0	0	0	0	0	0	0	0
0.8728760607466596	0	0	0	0	0	0	0	0	0	0	0	0	0	0	0	0	0	0
0.8753140911199894	0	0	0	0	0	0	0	0	0	0	0	0	0	0	0	0	0	0
0.8777521214933192	2.781606447364914e-15	-7.236115447649626e-16	0	0	0	0	0	0	0	0	0	0	0	0	1.070788329505367e-16	0	0	0
0.880190151866649	-1.844926499899388e-06	5.565406119291115e-07	0	0	0	0	0	0	0	0	0	0	0	0	-7.057270109320202e-08	0	0	0
0.8826281822399787	-1.366919305465742e-05	4.7101634274627e-06	0	0	0	0	0	0	0	0	0	0	0	0	-5.157227449175272e-07	0	0	0
0.8850662126133085	-1.911345312597706e-05	7.431547953330848e-06	0	0	0	0	0	0	0	0	0	0	0	0	-7.067978686015022e-07	0	0	0
0.8875042429866382	-2.363290183217499e-05	1.029096288046402e-05	0	0	0	0	0	0	0	0	0	0	0	0	-8.5178603917671e-07	0	0	0
0.889942273359968	-2.802021552848672e-05	1.362361317696151e-05	0	0	0	0	0	0	0	0	0	0	0	0	-9.790703850203505e-07	0	0	0
0.8923803037332978	-3.156635805457997e-05	1.713637988454315e-05	0	0	0	0	0	0	0	0	0	0	0	0	-1.063089073967089e-06	0	0	0
0.8948183341066276	-3.322390816171712e-05	2.014627179995627e-05	0	0	0	0	0	0	0	0	0	0	0	0	-1.071487384327452e-06	0	0	0
0.8972563644799574	-3.310614728306207e-05	2.223081099236085e-05	0	0	0	0	0	0	0	0	0	0	0	0	-1.01820292368735e-06	0	0	0
0.8996943948532872	-3.181923023782956e-05	2.320645907856979e-05	0	0	0	0	0	0	0	0	0	0	0	0	-9.34598494442929e-07	0	0	0
0.902132425226617	-3.035055041898221e-05	2.34054502007132e-05	0	0	0	0	0	0	0	0	0	0	0	0	-8.588945730848331e-07	0	0	0
0.9045704555999468	-2.917005112233888e-05	2.313032062417832e-05	0	0	0	0	0	0	0	0	0	0	0	0	-8.070458663757694e-07	0	0	0
0.9070084859732765	-2.763934624887024e-05	2.214240269728421e-05	0	0	0	0	0	0	0	0	0	0	0	0	-7.567830915833918e-07	0	0	0
0.9094465163466063	-2.505324320090736e-05	2.014158915186269e-05	0	0	0	0	0	0	0	0	0	0	0	0	-6.840834508551189e-07	0	0	0
0.9118845467199361	-2.137718073961399e-05	1.719966397543406e-05	0	0	0	0	0	0	0	0	0	0	0	0	-5.893603571902543e-07	0	0	0
0.9143225770932659	-1.824384128935889e-05	1.465889142867226e-05	0	0	0	0	0	0	0	0	0	0	0	0	-5.314870051106592e-07	0	0	0
0.9167606074665957	-2.121030282568884e-05	1.695762614611677e-05	0	0	0	0	0	0	0	0	0	0	0	0	-7.160636498448275e-07	0	0	0
0.9191986378399255	-4.489823185982164e-05	3.568475195635327e-05	0	0	0	0	0	0	0	0	0	0	0	0	-1.694224817900067e-06	0	0	0
0.9216366682132552	-0.0001240515884662224	9.822004670041024e-05	0	0	0	0	0	0	0	0	0	0	0	0	-4.773821593136674e-06	0	0	0
0.924074698586585	-0.0003372114327517715	0.0002668495559888818	0	0	0	0	0	0	0	0	0	0	0	0	-1.286426112649929e-05	0	0	0
0.9265127289599148	-0.0008170910687210306	0.0006454504606898953	0	0	0	0	0	0	0	0	0	0	0	0	-3.0818735358971e-05	0	0	0
0.9289507593332446	-0.001658644878557248	0.001302205096847529	0	0	0	0	0	0	0	0	0	0	0	0	-6.208418137311586e-05	0	0	0
0.9313887897065743	-0.00284721073683885	0.002227048652991996	0	0	0	0	0	0	0	0	0	0	0	0	-0.0001059883312771069	0	0	0
0.9338268200799041	-0.004458908904576585	0.003512310312273307	0	0	0	0	0	0	0	0	0	0	0	0	-0.000164822506785942	0	0	0
0.9362648504532339	-0.007217201240279398	0.005822159356199879	0	0	0	0	0	0	0	0	0	0	0	0	-0.000263498772930542	0	0	0
0.9387028808265637	-0.0133282098436897	0.01123615102007949	0	0	0	0	0	0	0	0	0	0	0	0	-0.000476328824007427	0	0	0
0.9411409111998935	-0.02799703011757919	0.02496120761299159	0	0	0	0	0	0	0	0	0	0	0	0	-0.0009719721505940561	0	0	0
0.9435789415732233	-0.06488103499621596	0.06121913458400648	0	0	0	0	0	0	0	0	0	0	0	0	-0.002180349893562748	0	0	0
0.9460169719465531	-0.1565121500260209	0.1552816121532294	0	0	0	0	0	0	0	0	0	0	0	0	-0.005096150494654453	0	0	0
0.9484550023198829	-0.3692160559821696	0.3809535116746123	0	0	0	0	0	0	0	0	0	0	0	0	-0.01171079800693453	0	0	0
0.9508930326932127	-0.8194635682758072	0.8753744706338992	0	0	0	0	0	0	0	0	0	0	0	0	-0.02540899925169011	0	0	0
0.9533310630665424	-1.679711700161683	1.865193232192217	0	0	0	0	0	0	0	0	0	0	0	0	-0.05088623360344713	0	0	0
0.9557690934398722	-2.076453142351401	3.639452657590577	0	0	0	0	0	0	0	0	0	0	0	0	-0.04113112009888863	0	0	0
0.9582071238132019	-1.45262784445429	6.426973610151712	0	0	0	0	0	0	0	0	0	0	0	0	0.03315979174700175	0	0	0
0.9606451541865317	1.826318568662519	10.57635928253163	0	0	0	0	0	0	0	0	0	0	0	0	0.2546556993336456	0	0	0
0.9630831845598615	10.06709719682484	16.67640104801158	0	0	0	0	0	0	0	0	0	0	0	0	0.7410318576036456	0	0	0
0.9655212149331913	21.26180847957075	24.13973377825942	0	0	0	0	0	0	0	0	0	0	0	0	1.383485635721432	0	0	0
0.9679592453065211	27.60333728651232	30.62592458298256	0	0	0	0	0	0	0	0	0	0	0	0	1.771333667254513	0	0	0
0.9703972756798509	29.23530189780012	34.31786450857479	0	0	0	0	0	0	0	0	0	0	0	0	1.888920365542494	0	0	0
0.9728353060531807	29.76179691689649	35.07540591254645	0	0	0	0	0	0	0	0	0	0	0	0	1.912319923861587	0	0	0
0.9752733364265105	30.81541067715313	33.99980805858812	0	0	0	0	0	0	0	0	0	0	0	0	1.938818814380235	0	0	0
0.9777113667998403	29.65772302462273	31.8554034558471	0	0	0	0	0	0	0	0	0	0	0	0	1.846482466805486	0	0	0
0.9801493971731701	26.05226767079918	27.2561866561411	0	0	0	0	0	0	0	0	0	0	0	0	1.607016309984859	0	0	0
0.9825874275464999	18.82913758706976	19.37148369695727	0	0	0	0	0	0	0	0	0	0	0	0	1.154471288584217	0	0	0
0.9850254579198297	9.777551426209083	9.920924629297051	0	0	0	0	0	0	0	0	0	0	0	0	0.5972078611763281	0	0	0
0.9874634882931594	1.092279205680544	1.088662732980439	0	0	0	0	0	0	0	0	0	0	0	0	0.06654627564986741	0	0	0
0.9899015186664892	-4.942790637971732e-05	-4.890485675207223e-05	0	0	0	0	0	0	0	0	0	0	0	0	-3.015455519999851e-06	0	0	0
0.992339549039819	-6.665464201738912e-12	-6.722997253823166e-12	0	0	0	0	0	0	0	0	0	0	0	0	-4.097442631235004e-13	0	0	0
0.9947775794131488	0	0	0	0	0	0	0	0	0	0	0	0	0	0	0	0	0	0
0.9972156097864785	0	0	0	0	0	0	0	0	0	0	0	0	0	0	0	0	0	0
0.9996536401598083	0	0	0	0	0	0	0	0	0	0	0	0	0	0	0	0	0	0
1.002091670533138	0	0	0	0	0	0	0	0	0	0	0	0	0	0	0	0	0	0
1.004529700906468	0	0	0	0	0	0	0	0	0	0	0	0	0	0	0	0	0	0
1.006967731279798	0	0	0	0	0	0	0	0	0	0	0	0	0	0	0	0	0	0
1.009405761653127	0	0	0	0	0	0	0	0	0	0	0	0	0	0	0	0	0	0
1.011843792026457	0	0	0	0	0	0	0	0	0	0	0	0	0	0	0	0	0	0
1.014281822399787	0	0	0	0	0	0	0	0	0	0	0	0	0	0	0	0	0	0
1.016719852773117	0	0	0	0	0	0	0	0	0	0	0	0	0	0	0	0	0	0
1.019157883146447	0	0	0	0	0	0	0	0	0	0	0	0	0	0	0	0	0	0
1.021595913519776	0	0	0	0	0	0	0	0	0	0	0	0	0	0	0	0	0	0
1.024033943893106	0	0	0	0	0	0	0	0	0	0	0	0	0	0	0	0	0	0
1.026471974266436	0	0	0	0	0	0	0	0	0	0	0	0	0	0	0	0	0	0
1.028910004639766	0	0	0	0	0	0	0	0	0	0	0	0	0	0	0	0	0	0
1.031348035013095	0	0	0	0	0	0	0	0	0	0	0	0	0	0	0	0	0	0
1.033786065386425	0	0	0	0	0	0	0	0	0	0	0	0	0	0	0	0	0	0
1.036224095759755	0	0	0	0	0	0	0	0	0	0	0	0	0	0	0	0	0	0
1.038662126133085	0	0	0	0	0	0	-9.170724184296652e-11	1.201786644567041e-11	0	0	0	0	0	0	0	0	0	-6.870129494510842e-12
1.041100156506415	0	0	0	0	0	0	-7.979278419270399e-10	1.045922826293933e-10	0	0	0	0	0	0	0	0	0	-5.80224442627523e-11
1.043538186879744	0	0	0	0	0	0	-6.454606994608922e-09	8.459939931335805e-10	0	0	0	0	0	0	0	0	0	-4.554936060363574e-10
1.045976217253074	0	0	0	0	0	0	-4.849818318179798e-08	6.354123357932013e-09	0	0	0	0	0	0	0	0	0	-3.320866362963566e-09
1.048414247626404	0	0	0	0	0	0	-3.341923781354595e-07	4.37448564355377e-08	0	0	0	0	0	0	0	0	0	-2.220392006051636e-08
1.050852277999734	0	0	0	0	0	0	-2.073970242426123e-06	2.710629779085914e-07	0	0	0	0	0	0	0	0	0	-1.337289959878781e-07
1.053290308373064	0	0	0	0	0	0	-1.144230782196981e-05	1.492968651573547e-06	0	0	0	0	0	0	0	0	0	-7.163034071793181e-07
1.055728338746393	0	0	0	0	0	0	-5.58758424544329e-05	7.281075273648252e-06	0	0	0	0	0	0	0	0	0	-3.397861644758126e-06
1.058166369119723	0	0	0	0	0	0	-0.0002455372879465029	3.198726055271803e-05	0	0	0	0	0	0	0	0	0	-1.45119209120018e-05
1.060604399493053	0	0	0	0	0	0	-0.000996627506677551	0.0001299692083088746	0	0	0	0	0	0	0	0	0	-5.727071719998135e-05
1.063042429866383	0	0	0	0	0	0	-0.003778175776743253	0.0004934051080789704	0	0	0	0	0	0	0	0	0	-0.0002111554133501261
1.065480460239713	0	0	0	0	0	0	-0.01330168838175077	0.001738627848449208	0	0	0	0	0	0	0	0	0	-0.0007232660411611674
